<svg width="42" height="36" viewBox="0 0 42 36" fill="none" xmlns="http://www.w3.org/2000/svg">
<path d="M36.177 2.8243C35.3175 1.92594 34.2839 1.21218 33.1394 0.726592C31.9948 0.241003 30.7633 -0.00622519 29.52 2.7167e-07H4.9505C4.49328 0.000347223 4.04638 0.135939 3.66605 0.389708C3.28572 0.643477 2.98895 1.00408 2.81311 1.42614C2.63726 1.84819 2.59019 2.31283 2.67783 2.76158C2.76547 3.21032 2.98389 3.62312 3.3056 3.948L10.9392 11.5895L17.4709 11.5775L10.5414 4.6322H29.518C30.1261 4.63008 30.7286 4.74848 31.2906 4.98056C31.8527 5.21264 32.3632 5.55381 32.7926 5.98434C33.2221 6.41487 33.5619 6.92624 33.7926 7.48889C34.0232 8.05154 34.1401 8.65432 34.1364 9.2624C34.1407 9.86877 34.0244 10.4699 33.7942 11.031C33.5641 11.592 33.2247 12.1016 32.7958 12.5303C32.3657 12.9605 31.855 13.3018 31.2929 13.5345C30.7308 13.7673 30.1284 13.887 29.52 13.8868L4.6382 13.8828C3.72137 13.8814 2.82474 14.1521 2.06195 14.6608C1.29917 15.1695 0.704569 15.8932 0.353509 16.7401C0.0024488 17.5871 -0.0892666 18.5192 0.0899862 19.4184C0.269239 20.3175 0.71139 21.1432 1.3604 21.7908L15.4402 35.8686H21.9819L4.6382 18.5131L29.52 18.5251C30.7349 18.5254 31.9379 18.2863 33.0604 17.8215C34.1829 17.3567 35.2027 16.6753 36.0618 15.8162C37.7966 14.0812 38.7711 11.728 38.7709 9.2745C38.7909 6.86647 37.8585 4.54809 36.177 2.8243Z" fill="#DB3534"/>
<path d="M35.2283 35.8687H41.7819L26.7414 20.8402H20.1878L35.2283 35.8687Z" fill="#DB3534"/>
<path d="M26.9602 35.8687H30.232L24.1101 29.7527H20.8442L26.9602 35.8687Z" fill="#DB3534"/>
<path d="M18.0597 26.9563H21.3355L15.2075 20.8403H11.9437L18.0597 26.9563Z" fill="#DB3534"/>
</svg>
